<?xml version="1.0" encoding="UTF-8" standalone="no"?>
<!-- Created with Inkscape (http://www.inkscape.org/) -->

<svg
   xmlns:dc="http://purl.org/dc/elements/1.1/"
   xmlns:cc="http://creativecommons.org/ns#"
   xmlns:rdf="http://www.w3.org/1999/02/22-rdf-syntax-ns#"
   xmlns:svg="http://www.w3.org/2000/svg"
   xmlns="http://www.w3.org/2000/svg"
   xmlns:sodipodi="http://sodipodi.sourceforge.net/DTD/sodipodi-0.dtd"
   xmlns:inkscape="http://www.inkscape.org/namespaces/inkscape"
   width="36.601498mm"
   height="23.470684mm"
   viewBox="0 0 36.601498 23.470684"
   version="1.1"
   id="svg14707"
   inkscape:version="0.92.4 5da689c313, 2019-01-14"
   sodipodi:docname="logo.svg">
  <defs
     id="defs14701" />
  <sodipodi:namedview
     id="base"
     pagecolor="#ffffff"
     bordercolor="#666666"
     borderopacity="1.0"
     inkscape:pageopacity="0.0"
     inkscape:pageshadow="2"
     inkscape:zoom="1.1877681"
     inkscape:cx="88.148096"
     inkscape:cy="-80.512894"
     inkscape:document-units="mm"
     inkscape:current-layer="g923"
     showgrid="false"
     fit-margin-top="0"
     fit-margin-left="0"
     fit-margin-right="0"
     fit-margin-bottom="0"
     borderlayer="true"
     inkscape:showpageshadow="false"
     inkscape:window-width="1920"
     inkscape:window-height="1038"
     inkscape:window-x="0"
     inkscape:window-y="1122"
     inkscape:window-maximized="0" />
  <metadata
     id="metadata14704">
    <rdf:RDF>
      <cc:Work
         rdf:about="">
        <dc:format>image/svg+xml</dc:format>
        <dc:type
           rdf:resource="http://purl.org/dc/dcmitype/StillImage" />
        <dc:title></dc:title>
      </cc:Work>
    </rdf:RDF>
  </metadata>
  <g
     inkscape:label="Layer 1"
     inkscape:groupmode="layer"
     id="layer1"
     transform="translate(-38.866629,-104.19755)">
    <g
       id="g923"
       style="fill:#ffffff"
       transform="translate(12.47628,76.364942)">
      <path
         style="font-style:italic;font-variant:normal;font-weight:bold;font-stretch:normal;font-size:9.75785828px;line-height:1;font-family:'Poller One';-inkscape-font-specification:'Poller One Bold Italic';letter-spacing:0px;word-spacing:0px;fill:#ffffff;fill-opacity:1;stroke:none;stroke-width:0.92200238"
         d="M 101.56445 32.595703 C 99.919735 32.595703 98.346358 32.763463 96.845703 33.099609 C 95.357053 33.423751 93.958962 33.886066 92.650391 34.486328 C 91.353825 35.08659 90.158883 35.808071 89.066406 36.648438 C 87.973929 37.488804 87.008335 38.419008 86.167969 39.439453 C 85.327602 40.459898 84.624793 41.563434 84.060547 42.751953 C 83.496301 43.928467 83.082475 45.153226 82.818359 46.425781 C 82.446197 48.322609 82.457343 50.112235 82.853516 51.792969 C 83.261694 53.461697 84.029711 54.92695 85.158203 56.1875 C 86.286696 57.436045 87.765047 58.425884 89.589844 59.158203 C 91.426645 59.878517 93.574082 60.238281 96.035156 60.238281 C 97.091617 60.238281 98.113227 60.173073 99.097656 60.041016 C 100.08209 59.908958 101.01786 59.7281 101.90625 59.5 C 102.79464 59.259895 103.62982 58.989584 104.41016 58.689453 C 105.1905 58.389322 105.91002 58.064949 106.57031 57.716797 L 105.63477 54.691406 C 104.84242 55.039558 103.98857 55.322968 103.07617 55.539062 C 102.17578 55.743152 101.29406 55.84375 100.42969 55.84375 C 99.205153 55.84375 98.112763 55.621928 97.152344 55.177734 C 96.191925 54.721535 95.410809 54.085888 94.810547 53.269531 C 94.210285 52.44117 93.809558 51.451331 93.605469 50.298828 C 93.413385 49.13432 93.459921 47.836827 93.748047 46.408203 C 94.036173 44.967574 94.511587 43.672034 95.171875 42.519531 C 95.844168 41.355023 96.642003 40.363231 97.566406 39.546875 C 98.502815 38.730519 99.541143 38.100444 100.68164 37.65625 C 101.83414 37.212056 103.02909 36.990234 104.26562 36.990234 C 105.19003 36.990234 106.0606 37.103932 106.87695 37.332031 C 107.69331 37.548126 108.40169 37.818437 109.00195 38.142578 L 111.16211 35.117188 C 110.64588 34.781041 110.0512 34.46224 109.37891 34.162109 C 108.71862 33.849973 107.98794 33.581615 107.18359 33.353516 C 106.37924 33.113411 105.50115 32.92698 104.55273 32.794922 C 103.61633 32.662864 102.62091 32.595703 101.56445 32.595703 z M 5.3476562 33.029297 L 0 59.789062 L 10.408203 59.789062 L 12.15625 51.037109 L 15.576172 51.037109 C 17.785136 51.037109 19.742522 50.791043 21.447266 50.298828 C 23.15201 49.806613 24.604164 49.144768 25.804688 48.316406 C 27.005211 47.488045 27.95966 46.533597 28.667969 45.453125 C 29.388283 44.360648 29.86927 43.221722 30.109375 42.033203 C 30.385495 40.676611 30.366824 39.444326 30.054688 38.339844 C 29.742551 37.223357 29.106903 36.268908 28.146484 35.476562 C 27.186065 34.684217 25.882999 34.078386 24.238281 33.658203 C 22.605569 33.226015 20.601647 33.017292 18.224609 33.029297 L 5.3476562 33.029297 z M 36.212891 33.029297 L 30.865234 59.789062 L 41.273438 59.789062 L 43.21875 50.082031 L 45.416016 50.082031 L 47.720703 59.806641 L 59.480469 59.806641 L 56.076172 48.730469 C 57.684874 48.010154 58.982367 47.04456 59.966797 45.832031 C 60.951226 44.607497 61.605546 43.209405 61.929688 41.636719 C 62.181798 40.364163 62.157553 39.199039 61.857422 38.142578 C 61.569296 37.086117 60.998856 36.180158 60.146484 35.423828 C 59.294112 34.667498 58.158806 34.078386 56.742188 33.658203 C 55.337575 33.23802 53.639354 33.029297 51.646484 33.029297 L 36.212891 33.029297 z M 69.798828 33.029297 L 64.449219 59.789062 L 74.859375 59.789062 L 80.224609 33.029297 L 69.798828 33.029297 z M 115.71875 33.029297 L 110.37109 59.789062 L 132.98828 59.789062 L 133.81641 55.664062 L 121.60742 55.664062 L 123.0293 48.498047 L 132.35742 48.498047 L 133.18555 44.373047 L 123.85742 44.373047 L 125.31641 37.152344 L 137.50781 37.152344 L 138.33594 33.029297 L 115.71875 33.029297 z M 14.982422 36.955078 C 15.786773 36.979089 16.484009 37.117031 17.072266 37.369141 C 17.672528 37.621251 18.151562 37.967916 18.511719 38.412109 C 18.871876 38.844298 19.112369 39.366248 19.232422 39.978516 C 19.352474 40.590783 19.333802 41.276873 19.177734 42.033203 C 19.021666 42.801538 18.764454 43.496821 18.404297 44.121094 C 18.056145 44.733361 17.612501 45.260884 17.072266 45.705078 C 16.544035 46.137267 15.930679 46.480312 15.234375 46.732422 C 14.538071 46.972527 13.775627 47.099323 12.947266 47.111328 L 14.982422 36.955078 z M 45.865234 36.955078 L 46.478516 36.955078 C 47.330888 36.955078 48.069087 37.074348 48.693359 37.314453 C 49.317632 37.554558 49.815338 37.89565 50.1875 38.339844 C 50.571668 38.772032 50.830833 39.295936 50.962891 39.908203 C 51.094948 40.508465 51.087422 41.168358 50.943359 41.888672 C 50.799297 42.608986 50.542084 43.274452 50.169922 43.886719 C 49.797759 44.486981 49.329871 45.008931 48.765625 45.453125 C 48.213384 45.885314 47.577736 46.222786 46.857422 46.462891 C 46.137108 46.702995 45.350419 46.822266 44.498047 46.822266 L 43.867188 46.822266 L 45.865234 36.955078 z "
         transform="matrix(0.26458333,0,0,0.26458333,26.390349,27.832608)"
         id="text817" />
      <path
         style="font-style:italic;font-variant:normal;font-weight:bold;font-stretch:normal;font-size:9.75785828px;line-height:1;font-family:'Poller One';-inkscape-font-specification:'Poller One Bold Italic';text-align:end;letter-spacing:0px;word-spacing:0px;text-anchor:end;fill:#ffcc00;fill-opacity:1;stroke:none;stroke-width:0.92200238"
         d="M 115.41211 65.193359 L 114.70898 68.771484 L 121.33398 68.771484 L 117.39648 88.427734 L 126.42773 88.427734 L 130.36523 68.771484 L 136.99023 68.771484 L 137.69336 65.193359 L 115.41211 65.193359 z M 64.880859 65.208984 L 60.240234 88.427734 L 74.396484 88.427734 C 76.125651 88.427734 77.672526 88.235026 79.037109 87.849609 C 80.412109 87.453776 81.594401 86.932943 82.583984 86.287109 C 83.573568 85.641276 84.365234 84.901693 84.958984 84.068359 C 85.563151 83.235026 85.953776 82.370443 86.130859 81.474609 C 86.391276 80.162109 86.208984 79.052734 85.583984 78.146484 C 84.969401 77.240234 83.896484 76.552734 82.365234 76.083984 C 83.469401 75.490234 84.360026 74.787109 85.037109 73.974609 C 85.724609 73.151693 86.162109 72.276693 86.349609 71.349609 C 86.526693 70.422526 86.469401 69.583984 86.177734 68.833984 C 85.896484 68.073568 85.375651 67.427734 84.615234 66.896484 C 83.854818 66.354818 82.854818 65.938151 81.615234 65.646484 C 80.375651 65.354818 78.891276 65.208984 77.162109 65.208984 L 64.880859 65.208984 z M 93.693359 65.208984 L 89.052734 88.427734 L 108.67773 88.427734 L 109.39648 84.849609 L 98.802734 84.849609 L 100.03711 78.630859 L 108.13086 78.630859 L 108.84961 75.052734 L 100.75586 75.052734 L 102.02148 68.787109 L 112.59961 68.787109 L 113.31836 65.208984 L 93.693359 65.208984 z M 73.255859 68.615234 L 74.208984 68.615234 C 75.063151 68.615234 75.761068 68.698568 76.302734 68.865234 C 76.854818 69.031901 77.276693 69.255859 77.568359 69.537109 C 77.870443 69.807943 78.057943 70.125651 78.130859 70.490234 C 78.214193 70.854818 78.214193 71.235026 78.130859 71.630859 C 78.047526 72.026693 77.891276 72.406901 77.662109 72.771484 C 77.443359 73.136068 77.130859 73.458984 76.724609 73.740234 C 76.328776 74.021484 75.818359 74.245443 75.193359 74.412109 C 74.578776 74.568359 73.844401 74.646484 72.990234 74.646484 L 72.021484 74.646484 L 73.255859 68.615234 z M 71.458984 77.474609 L 73.083984 77.474609 C 73.792318 77.474609 74.396484 77.583984 74.896484 77.802734 C 75.396484 78.011068 75.797526 78.292318 76.099609 78.646484 C 76.401693 78.990234 76.599609 79.386068 76.693359 79.833984 C 76.787109 80.281901 76.787109 80.740234 76.693359 81.208984 C 76.589193 81.740234 76.401693 82.240234 76.130859 82.708984 C 75.860026 83.167318 75.490234 83.568359 75.021484 83.912109 C 74.563151 84.255859 73.995443 84.526693 73.318359 84.724609 C 72.651693 84.922526 71.854818 85.021484 70.927734 85.021484 L 69.958984 85.021484 L 71.458984 77.474609 z M 51.021484 81.599609 C 50.167318 81.599609 49.417318 81.693359 48.771484 81.880859 C 48.136068 82.068359 47.589193 82.323568 47.130859 82.646484 C 46.682943 82.958984 46.323568 83.333984 46.052734 83.771484 C 45.781901 84.198568 45.599609 84.656901 45.505859 85.146484 C 45.401693 85.646484 45.396484 86.115234 45.490234 86.552734 C 45.594401 86.979818 45.807943 87.354818 46.130859 87.677734 C 46.464193 87.990234 46.912109 88.240234 47.474609 88.427734 C 48.037109 88.615234 48.745443 88.708984 49.599609 88.708984 C 50.443359 88.708984 51.188151 88.615234 51.833984 88.427734 C 52.490234 88.240234 53.042318 87.990234 53.490234 87.677734 C 53.938151 87.354818 54.292318 86.979818 54.552734 86.552734 C 54.823568 86.115234 55.011068 85.646484 55.115234 85.146484 C 55.208984 84.656901 55.208984 84.198568 55.115234 83.771484 C 55.021484 83.333984 54.813151 82.958984 54.490234 82.646484 C 54.167318 82.323568 53.719401 82.068359 53.146484 81.880859 C 52.573568 81.693359 51.865234 81.599609 51.021484 81.599609 z "
         transform="matrix(0.26458333,0,0,0.26458333,26.390349,27.832608)"
         id="text833" />
      <path
         style="font-style:italic;font-variant:normal;font-weight:bold;font-stretch:normal;font-size:9.75785828px;line-height:1;font-family:'Poller One';-inkscape-font-specification:'Poller One Bold Italic';letter-spacing:0px;word-spacing:0px;fill:#ffffff;fill-opacity:1;stroke:none;stroke-width:0.92200238"
         d="M 19.84375 0 C 18.199032 0 16.627608 0.16775956 15.126953 0.50390625 C 13.638303 0.8280477 12.240212 1.290363 10.931641 1.890625 C 9.6350748 2.490887 8.440133 3.2123676 7.3476562 4.0527344 C 6.2551795 4.8931011 5.2876324 5.8233047 4.4472656 6.84375 C 3.6068989 7.8641953 2.9060431 8.9677313 2.3417969 10.15625 C 1.7775506 11.332763 1.3617715 12.557523 1.0976562 13.830078 C 0.72549384 15.726906 0.73859274 17.516532 1.1347656 19.197266 C 1.5429438 20.865994 2.3109607 22.329294 3.4394531 23.589844 C 4.5679456 24.838389 6.0443443 25.83018 7.8691406 26.5625 C 9.7059422 27.282814 11.855332 27.642578 14.316406 27.642578 C 15.372867 27.642578 16.392524 27.575417 17.376953 27.443359 C 18.361383 27.311302 19.299112 27.132396 20.1875 26.904297 C 21.075888 26.664192 21.909113 26.393881 22.689453 26.09375 C 23.469794 25.793619 24.191274 25.469246 24.851562 25.121094 L 23.914062 22.095703 C 23.121717 22.443855 22.26982 22.725312 21.357422 22.941406 C 20.457029 23.145495 19.575315 23.248047 18.710938 23.248047 C 17.486403 23.248047 16.394013 23.026225 15.433594 22.582031 C 14.473175 22.125832 13.692059 21.490184 13.091797 20.673828 C 12.491535 19.845467 12.088855 18.853675 11.884766 17.701172 C 11.692682 16.536664 11.741171 15.241123 12.029297 13.8125 C 12.317423 12.371871 12.790884 11.074378 13.451172 9.921875 C 14.123465 8.7573668 14.923253 7.7675281 15.847656 6.9511719 C 16.784065 6.1348156 17.822393 5.5047407 18.962891 5.0605469 C 20.115394 4.616353 21.308382 4.3945312 22.544922 4.3945312 C 23.469325 4.3945312 24.339894 4.5082286 25.15625 4.7363281 C 25.972606 4.9524224 26.680988 5.2227335 27.28125 5.546875 L 29.443359 2.5214844 C 28.927134 2.1853377 28.33245 1.8665372 27.660156 1.5664062 C 26.999868 1.25427 26.267242 0.98395892 25.462891 0.75585938 C 24.65854 0.51575459 23.782398 0.32932325 22.833984 0.19726562 C 21.897576 0.065207996 20.900211 0 19.84375 0 z M 47.900391 0 C 45.35528 0 43.056802 0.33551911 41.003906 1.0078125 C 38.95101 1.6801059 37.155811 2.6234084 35.619141 3.8359375 C 34.094475 5.0484666 32.839898 6.5006207 31.855469 8.1933594 C 30.871039 9.8740928 30.175756 11.728927 29.767578 13.757812 C 29.3594 15.810708 29.305338 17.689787 29.605469 19.394531 C 29.917605 21.099275 30.596169 22.557002 31.640625 23.769531 C 32.685081 24.98206 34.094318 25.925363 35.871094 26.597656 C 37.659874 27.26995 39.827936 27.605469 42.373047 27.605469 C 44.918158 27.605469 47.216635 27.26995 49.269531 26.597656 C 51.334432 25.925363 53.129632 24.98206 54.654297 23.769531 C 56.178962 22.557002 57.433539 21.099275 58.417969 19.394531 C 59.414404 17.689787 60.115259 15.810708 60.523438 13.757812 C 60.931616 11.728927 60.980105 9.8740928 60.667969 8.1933594 C 60.355833 6.5006207 59.677268 5.0484666 58.632812 3.8359375 C 57.600362 2.6234084 56.191124 1.6801059 54.402344 1.0078125 C 52.613563 0.33551911 50.445501 0 47.900391 0 z M 68.466797 0.43164062 L 63.117188 27.191406 L 73.525391 27.191406 L 78.892578 0.43164062 L 68.466797 0.43164062 z M 85.736328 0.43164062 L 80.386719 27.191406 L 84.349609 27.191406 L 87.193359 12.984375 L 101.34766 27.191406 L 107.86719 27.191406 L 113.21484 0.43164062 L 109.25391 0.43164062 L 106.39062 14.695312 L 92.253906 0.43164062 L 85.736328 0.43164062 z M 47.144531 3.7460938 C 47.864846 3.7460938 48.476249 3.8709369 48.980469 4.1230469 C 49.484689 4.3751569 49.851979 4.8617169 50.080078 5.5820312 C 50.308178 6.3023456 50.386485 7.3164289 50.314453 8.625 C 50.242422 9.9335711 49.996355 11.64489 49.576172 13.757812 C 49.155989 15.894745 48.717918 17.622783 48.261719 18.943359 C 47.80552 20.263936 47.313387 21.291118 46.785156 22.023438 C 46.268931 22.755757 45.709637 23.24789 45.109375 23.5 C 44.509113 23.75211 43.849221 23.878906 43.128906 23.878906 C 42.408592 23.878906 41.789663 23.75211 41.273438 23.5 C 40.769217 23.24789 40.403881 22.755757 40.175781 22.023438 C 39.959687 21.291118 39.886953 20.263936 39.958984 18.943359 C 40.031016 17.622783 40.277082 15.894745 40.697266 13.757812 C 41.117449 11.64489 41.55552 9.9335711 42.011719 8.625 C 42.467918 7.3164289 42.954478 6.3023456 43.470703 5.5820312 C 43.986928 4.8617169 44.546222 4.3751569 45.146484 4.1230469 C 45.758752 3.8709369 46.424217 3.7460938 47.144531 3.7460938 z "
         transform="matrix(0.26458333,0,0,0.26458333,26.390349,27.832608)"
         id="text847" />
    </g>
  </g>
</svg>
